<svg xmlns="http://www.w3.org/2000/svg" viewBox="0 0 120 96" fill="none" aria-hidden="true">
  <!-- Open book base -->
  <path d="M14 62 Q60 54 60 54 Q60 54 106 62 L106 70 Q60 60 60 60 Q60 60 14 70 Z" fill="currentColor"/>
  <path d="M14 62 Q60 52 60 52" stroke="currentColor" stroke-width="3.5" stroke-linecap="round" fill="none"/>
  <path d="M106 62 Q60 52 60 52" stroke="currentColor" stroke-width="3.5" stroke-linecap="round" fill="none"/>
  <!-- Book spine bottom curve -->
  <path d="M14 70 Q60 58 106 70" stroke="currentColor" stroke-width="3.5" stroke-linecap="round" fill="none"/>

  <!-- Left figure -->
  <circle cx="32" cy="28" r="6.5" fill="currentColor"/>
  <path d="M32 35 L32 55 M32 42 L18 36 M32 42 L44 50" stroke="currentColor" stroke-width="5.5" stroke-linecap="round" stroke-linejoin="round" fill="none"/>

  <!-- Center figure (tallest) -->
  <circle cx="60" cy="18" r="7" fill="currentColor"/>
  <path d="M60 26 L60 52 M60 36 L46 26 M60 36 L74 26" stroke="currentColor" stroke-width="6" stroke-linecap="round" stroke-linejoin="round" fill="none"/>

  <!-- Right figure -->
  <circle cx="88" cy="28" r="6.5" fill="currentColor"/>
  <path d="M88 35 L88 55 M88 42 L76 50 M88 42 L102 36" stroke="currentColor" stroke-width="5.5" stroke-linecap="round" stroke-linejoin="round" fill="none"/>

  <!-- 4-pointed star above center -->
  <path d="M60 2 L62.2 7.8 L68 10 L62.2 12.2 L60 18 L57.8 12.2 L52 10 L57.8 7.8 Z" fill="currentColor"/>
</svg>
